HIERARCHY
ROOT hips
{
  OFFSET 0 11.86390953 0.3628582958
  CHANNELS 6 Xposition Yposition Zposition Yrotation Xrotation Zrotation
  JOINT spine
  {
    OFFSET 0 0.05383551117999996 0
    CHANNELS 3 Yrotation Xrotation Zrotation
    JOINT chest
    {
      OFFSET 0 0.6394558760401424 0
      CHANNELS 3 Yrotation Xrotation Zrotation
      JOINT neck
      {
        OFFSET 0 2.720089088562982 0
        CHANNELS 3 Yrotation Xrotation Zrotation
        JOINT head
        {
          OFFSET 0 0.37880844870545777 0
          CHANNELS 3 Yrotation Xrotation Zrotation
          JOINT rightEye
          {
            OFFSET -0.42867780714 0.7547055649100001 0.7381831347
            CHANNELS 3 Yrotation Xrotation Zrotation
            End Site
            {
              OFFSET -0.42867780714 0.7547055649100001 0.7381831347
            }
          }
          JOINT leftEye
          {
            OFFSET 0.428676479 0.7547055559999993 0.7381844503
            CHANNELS 3 Yrotation Xrotation Zrotation
            End Site
            {
              OFFSET 0.428676479 0.7547055559999993 0.7381844503
            }
          }
          JOINT jaw
          {
            OFFSET -0.18933892286100001 1.5626303011000007 1.137441874206
            CHANNELS 3 Yrotation Xrotation Zrotation
            End Site
            {
              OFFSET -0.18933892286100001 1.5626303011000007 1.137441874206
            }
          }
        }
      }
      JOINT rightShoulder
      {
        OFFSET -0.6795351508 2.0665205 0
        CHANNELS 3 Yrotation Xrotation Zrotation
        JOINT rightUpperArm
        {
          OFFSET -0.7287400483531672 0 0
          CHANNELS 3 Yrotation Xrotation Zrotation
          JOINT rightLowerArm
          {
            OFFSET -1.9872982039174532 0 0
            CHANNELS 3 Yrotation Xrotation Zrotation
            JOINT rightHand
            {
              OFFSET -2.6451847532219275 0 0
              CHANNELS 3 Yrotation Xrotation Zrotation
              JOINT rightLittleProximal
              {
                OFFSET -0.8008804099999995 -0.09592044000000044 -0.26183688629999996
                CHANNELS 3 Yrotation Xrotation Zrotation
                JOINT rightLittleIntermediate
                {
                  OFFSET -0.2473955153999997 -0.02541697026000067 0.002370178700999967
                  CHANNELS 3 Yrotation Xrotation Zrotation
                  JOINT rightLittleDistal
                  {
                    OFFSET -0.163687229200001 -0.015790700860001117 -0.0004274845300000635
                    CHANNELS 3 Yrotation Xrotation Zrotation
                    End Site
                    {
                      OFFSET -0.163687229200001 -0.015790700860001117 -0.0004274845300000635
                    }
                  }
                }
              }
              JOINT rightRingProximal
              {
                OFFSET -0.8393382799999985 -0.06223833561000025 -0.09213143500000005
                CHANNELS 3 Yrotation Xrotation Zrotation
                JOINT rightRingIntermediate
                {
                  OFFSET -0.3284497260000011 -0.03264224524000103 0.009408593183000052
                  CHANNELS 3 Yrotation Xrotation Zrotation
                  JOINT rightRingDistal
                  {
                    OFFSET -0.19447660429999902 -0.021730899850000318 0.003074347969000052
                    CHANNELS 3 Yrotation Xrotation Zrotation
                    End Site
                    {
                      OFFSET -0.19447660429999902 -0.021730899850000318 0.003074347969000052
                    }
                  }
                }
              }
              JOINT rightMiddleProximal
              {
                OFFSET -0.8473005199999989 -0.06735503500000095 0.10541820299999995
                CHANNELS 3 Yrotation Xrotation Zrotation
                JOINT rightMiddleIntermediate
                {
                  OFFSET -0.3450455799999995 -0.02481901642000084 0.019012570390000032
                  CHANNELS 3 Yrotation Xrotation Zrotation
                  JOINT rightMiddleDistal
                  {
                    OFFSET -0.23542332000000088 -0.025003910029999243 0.0075583457949999905
                    CHANNELS 3 Yrotation Xrotation Zrotation
                    End Site
                    {
                      OFFSET -0.23542332000000088 -0.025003910029999243 0.0075583457949999905
                    }
                  }
                }
              }
              JOINT rightIndexProximal
              {
                OFFSET -0.8008568281999987 -0.09897839600000169 0.29462796
                CHANNELS 3 Yrotation Xrotation Zrotation
                JOINT rightIndexIntermediate
                {
                  OFFSET -0.30524754480000016 -0.024634122809999992 0.02743375304999998
                  CHANNELS 3 Yrotation Xrotation Zrotation
                  JOINT rightIndexDistal
                  {
                    OFFSET -0.23067378950000017 -0.016876459159999913 0.008484125099999983
                    CHANNELS 3 Yrotation Xrotation Zrotation
                    End Site
                    {
                      OFFSET -0.23067378950000017 -0.016876459159999913 0.008484125099999983
                    }
                  }
                }
              }
              JOINT rightThumbProximal
              {
                OFFSET -0.25574064999999935 -0.12833189930000155 0.22385698609999993
                CHANNELS 3 Yrotation Xrotation Zrotation
                JOINT rightThumbIntermediate
                {
                  OFFSET -0.22791743260000086 -0.07103586192999978 0.27385039
                  CHANNELS 3 Yrotation Xrotation Zrotation
                  JOINT rightThumbDistal
                  {
                    OFFSET -0.13610267659999975 -0.03369390969999997 0.14246511509999996
                    CHANNELS 3 Yrotation Xrotation Zrotation
                    End Site
                    {
                      OFFSET -0.13610267659999975 -0.03369390969999997 0.14246511509999996
                    }
                  }
                }
              }
            }
          }
        }
      }
      JOINT leftShoulder
      {
        OFFSET 0.6795338396 2.0665205 0
        CHANNELS 3 Yrotation Xrotation Zrotation
        JOINT leftUpperArm
        {
          OFFSET 0.7287383950230443 0 0
          CHANNELS 3 Yrotation Xrotation Zrotation
          JOINT leftLowerArm
          {
            OFFSET 1.9872997282019604 0 0
            CHANNELS 3 Yrotation Xrotation Zrotation
            JOINT leftHand
            {
              OFFSET 2.6451820781302327 0 0
              CHANNELS 3 Yrotation Xrotation Zrotation
              JOINT leftLittleProximal
              {
                OFFSET 0.8008804099999995 -0.09592306899999814 -0.2618342639000001
                CHANNELS 3 Yrotation Xrotation Zrotation
                JOINT leftLittleIntermediate
                {
                  OFFSET 0.2473981400000007 -0.02542352681000093 0.0023609995859999455
                  CHANNELS 3 Yrotation Xrotation Zrotation
                  JOINT leftLittleDistal
                  {
                    OFFSET 0.1636846068000002 -0.015794634789999318 -0.00043272972159996703
                    CHANNELS 3 Yrotation Xrotation Zrotation
                    End Site
                    {
                      OFFSET 0.1636846068000002 -0.015794634789999318 -0.00043272972159996703
                    }
                  }
                }
              }
              JOINT leftRingProximal
              {
                OFFSET 0.8393409199999996 -0.062242267999998324 -0.0921281570000001
                CHANNELS 3 Yrotation Xrotation Zrotation
                JOINT leftRingIntermediate
                {
                  OFFSET 0.3284471036000003 -0.03264224524000103 0.009405970574000042
                  CHANNELS 3 Yrotation Xrotation Zrotation
                  JOINT leftRingDistal
                  {
                    OFFSET 0.1944779099999996 -0.021732211159998904 0.003073036670000001
                    CHANNELS 3 Yrotation Xrotation Zrotation
                    End Site
                    {
                      OFFSET 0.1944779099999996 -0.021732211159998904 0.003073036670000001
                    }
                  }
                }
              }
              JOINT leftMiddleProximal
              {
                OFFSET 0.8473005200000001 -0.06736028199999788 0.1054214809999999
                CHANNELS 3 Yrotation Xrotation Zrotation
                JOINT leftMiddleIntermediate
                {
                  OFFSET 0.3450455799999995 -0.024824261000000014 0.019013225990000007
                  CHANNELS 3 Yrotation Xrotation Zrotation
                  JOINT leftMiddleDistal
                  {
                    OFFSET 0.2354259489999998 -0.025005222000000327 0.0075590014499999705
                    CHANNELS 3 Yrotation Xrotation Zrotation
                    End Site
                    {
                      OFFSET 0.2354259489999998 -0.025005222000000327 0.0075590014499999705
                    }
                  }
                }
              }
              JOINT leftIndexProximal
              {
                OFFSET 0.8008594516999996 -0.09898495199999946 0.29463124239999994
                CHANNELS 3 Yrotation Xrotation Zrotation
                JOINT leftIndexIntermediate
                {
                  OFFSET 0.30524754480000016 -0.024632811499998963 0.02743047472
                  CHANNELS 3 Yrotation Xrotation Zrotation
                  JOINT leftIndexDistal
                  {
                    OFFSET 0.23067378950000017 -0.016876459159999913 0.008481502700000004
                    CHANNELS 3 Yrotation Xrotation Zrotation
                    End Site
                    {
                      OFFSET 0.23067378950000017 -0.016876459159999913 0.008481502700000004
                    }
                  }
                }
              }
              JOINT leftThumbProximal
              {
                OFFSET 0.25574326469999953 -0.12833321050000013 0.22385764169999997
                CHANNELS 3 Yrotation Xrotation Zrotation
                JOINT leftThumbIntermediate
                {
                  OFFSET 0.22804987480000094 -0.07138466829999968 0.273648441
                  CHANNELS 3 Yrotation Xrotation Zrotation
                  JOINT leftThumbDistal
                  {
                    OFFSET 0.13614857189999907 -0.033867001519998885 0.14238119169999996
                    CHANNELS 3 Yrotation Xrotation Zrotation
                    End Site
                    {
                      OFFSET 0.13614857189999907 -0.033867001519998885 0.14238119169999996
                    }
                  }
                }
              }
            }
          }
        }
      }
    }
  }
  JOINT rightUpperLeg
  {
    OFFSET -0.9749898906000001 -1.8495733739999998 0
    CHANNELS 3 Yrotation Xrotation Zrotation
    JOINT rightLowerLeg
    {
      OFFSET 0 -4.1566544686813165 0
      CHANNELS 3 Yrotation Xrotation Zrotation
      JOINT rightFoot
      {
        OFFSET 0.14539718599999998 -4.225553926 -0.3666210900000001
        CHANNELS 3 Yrotation Xrotation Zrotation
        JOINT rightToes
        {
          OFFSET 0.1706738473 -0.9584117400000015 1.0093348617
          CHANNELS 3 Yrotation Xrotation Zrotation
          End Site
          {
            OFFSET 0.1706738473 -0.9584117400000015 1.0093348617
          }
        }
      }
    }
  }
  JOINT leftUpperLeg
  {
    OFFSET 0.9749898906000001 -1.8495733739999998 0
    CHANNELS 3 Yrotation Xrotation Zrotation
    JOINT leftLowerLeg
    {
      OFFSET 0 -4.156653488267941 0
      CHANNELS 3 Yrotation Xrotation Zrotation
      JOINT leftFoot
      {
        OFFSET -0.14537357999999995 -4.225555399999999 -0.36661124279999996
        CHANNELS 3 Yrotation Xrotation Zrotation
        JOINT leftToes
        {
          OFFSET -0.17066467000000002 -0.9584157000000019 1.0093348617
          CHANNELS 3 Yrotation Xrotation Zrotation
          End Site
          {
            OFFSET -0.17066467000000002 -0.9584157000000019 1.0093348617
          }
        }
      }
    }
  }
}
MOTION
Frames: 4
Frame Time: 0.03333333333333333
0.05443456023931503 -0.30077629025390706 0.0275855865329504 1.510451364596828 -0.8957567820926067 -5.402615718258942 -1.1587807028710153 1.296898141169458 3.005757145968317 1.2666105122759899 1.3390441954869285 11.808534162273299 -0.3326699662844034 1.0447752456480417 -2.165943196584947 0.4395035896159569 1.5774483291996868 -8.13468104971149 0 0 0 0 0 0 0 0 0 3.4051781085524815 4.498130207454155 5.695692415695106 1.3394084384406917 -1.674221881304113 67.30132592129479 17.735260691726825 0.03518192642952434 -0.22544321025308503 -9.163840620017698 -11.05664038688108 12.027355260451024 -15.602426309720391 5.214464137632827 35.642722000385604 -3.4992845729648 1.0430382750404328 45.60928875520518 -0.033224141867320846 -0.8197483707911479 22.123055306265794 -11.331867126382841 2.4322523943861984 26.554272638266088 -3.433833089960368 1.5389372207852217 40.16022923107595 0.2496736071858855 -0.18717279587592886 17.812872063529923 -8.623131093439833 0.8982367648375414 15.807219189360644 -3.4932478520136145 0.7745321433337701 33.390610628675375 -1.5230923717728049 0.18753642535202467 15.913373835578467 -4.588712997448099 0.33647407463174706 7.877040283529864 -2.5349417227778144 0.3365533435459158 20.58325851433644 -0.04944365567328757 -0.21471408918108392 13.845815585052499 -0.4730846080875694 18.648776849235162 -11.237346632713011 -31.73819673061943 0.8894012135636545 3.1663943847188323 -7.698775175540463 1.6458719546777134 1.1069033241758388 -13.854261219534596 3.4969909130205807 -5.7252696186430505 2.783532968175007 3.3703587402226964 -83.51893430751048 -14.505511137256976 0.0235632461662601 0.18536701493619795 4.035407330832226 -27.542705220556787 -11.331089818852268 15.842058915550517 5.385648575099874 -35.62554911576353 3.461911505770675 1.3046913676631455 -45.6049179966645 2.5732611179576397 0.5107420566410176 -20.536103065122838 11.34836071253722 2.440540210058031 -26.55375894111649 3.4098066599744663 1.5344334391616767 -40.160069702513205 1.5898301359535776 0.5033894969498541 -19.351074310722353 8.564240585944429 0.8816097052492938 -15.807275874358213 3.586452252043292 0.7958240024352015 -33.391477761643245 1.3339288041917454 0.15407343187178477 -12.278670757638876 4.564991826963199 0.3332201009337142 -7.8766867097802935 2.5749950434814157 0.3426639088752061 -20.583704612386587 0.678513948978213 0.022944675435915492 -10.178989741652156 0.3620999347683519 18.625573727683328 11.179656857183534 31.852903233191704 0.9234636278683214 -3.1229988449200947 8.671559283444042 1.8058092972102713 -0.29956094421428614 -4.8327852375133835 -1.6078976569157681 10.752586990116386 -5.163454598195691 12.398074335930353 2.2222942484375263 0.9236281005964515 -9.850769719427756 -7.926799322037629 -0.0000012679568789203983 -0.548658538018035 -0.0000010049266905152825 11.672600190537805 -19.197351963869053 11.912953439866097 10.262511262187099 21.735761475886836 6.051190942472708 3.2389356696322964 -1.4961751622182042 -8.908464283010437 0.000007960217575356945 -0.44197226397234274 -0.000002797340026408825
0.055617302656173706 -0.2999599450390633 0.027147462591528893 1.519139369163009 -0.8958379005031364 -5.401631138176651 -1.0487639370955315 1.305677838883984 2.969249127860167 1.3444978449293272 1.3409192750188113 11.735394977909564 -0.33268451108489944 1.0498234920494147 -2.1632807050961493 0.3718823270778602 1.7389942990327174 -8.123867997090281 0 0 0 0 0 0 0 0 0 3.4029442287466094 4.49809852022991 5.69520327587289 1.3361845372331915 -1.6785075247757013 67.30388554733398 17.735179181521445 0.03517986203113897 -0.2254682629842084 -9.176133288311767 -11.062343644783727 12.041727253833873 -15.616133700199766 5.221915164617393 35.61314248791599 -3.497374498072642 1.0415413621611689 45.58172674533592 -0.030446051702329013 -0.8194516007254578 22.095772756916116 -11.341126504900142 2.434136450494677 26.52592369424738 -3.4321790873896543 1.5371847525973446 40.13282044486823 0.252114180339632 -0.18732280737470988 17.78558751094143 -8.621062030952917 0.8967542184626244 15.780028931742226 -3.491223074010708 0.7732839724855552 33.36330546433259 -1.520805767772286 0.186876134633828 15.886096261969493 -4.566720024391343 0.3334496898886796 7.851661055086965 -2.532687803748225 0.33568928306722856 20.555983663714095 -0.0469442304966476 -0.21472413443217916 13.818544859099338 -0.45286269035336746 18.645392412724743 -11.225234536171403 -31.679890267215317 0.8701235601799003 3.1787740854037034 -7.679107649264509 1.641152593675317 1.111356039252122 -13.852484535294417 3.4970822233813537 -5.726379142016211 2.7831189916696086 3.367656358584807 -83.52181985098757 -14.502617029897799 0.023562238980076616 0.18535650290243683 4.045902450831358 -27.564594183912806 -11.339147246784623 15.842052315651253 5.38566100971039 -35.625581411983845 3.4666551907967986 1.3090269975019178 -45.678167856368525 2.5789969058827547 0.5136761136582966 -20.609296278846493 11.348352334122808 2.4405508919176278 -26.553766584432903 3.414196483226064 1.5390771834299553 -40.233272871475975 1.5955179363982905 0.5061439309834467 -19.424271391232796 8.564247340773198 0.881619311339971 -15.807309885724978 3.591846221302652 0.7992090092460427 -33.464679453713075 1.3401120779036937 0.15565636067459498 -12.351911597398669 4.564996507900937 0.3332317604772598 -7.876691784177387 2.5810240527663253 0.3449421915052595 -20.65692185326592 0.6849272968179133 0.023818314399935463 -10.252240173006317 0.36210767724377724 18.62557192576213 11.17966904615069 31.852930751505465 0.9234768630789022 -3.1230097157795074 8.671571949944848 1.8058048126714792 -0.29953961625310266 -4.829771198679345 -1.5878240362013136 10.744804177980923 -5.146796686299872 12.350752505992872 2.229143664988982 0.8992618670180816 -9.824893833346637 -7.919934507869889 0.0000025680184753261327 -0.5479454442890094 1.297438261598564e-8 11.677216305467084 -19.18211948956573 11.900282112218084 10.254466958974383 21.70223582400049 6.044683573233578 3.2376611349304896 -1.480738421713895 -8.896589213960086 -0.000002818574285026108 -0.44033339687976575 0.0000024631886697325754
0.05753910169005394 -0.2986734383862313 0.026454882696270943 1.5700223206188761 -0.8963271726384183 -5.394197216975382 -0.8252213032130975 1.3237061733164692 2.889192706499325 1.5024995256476845 1.3452147230895304 11.582026699491099 -0.33249199015904773 1.0748442145078638 -2.149813926830122 0.0844096214650446 2.5213975090406535 -8.03858861033025 0 0 0 0 0 0 0 0 0 3.3896965236048686 4.497965348262006 5.692059997115008 1.3154409087022183 -1.7026148187154029 67.31775496818712 17.73325942049881 0.0351801755262088 -0.22543552634831418 -9.251705867710124 -11.101671833109855 12.127676534558908 -15.690213534779367 5.261862104157908 35.453277103386846 -3.487054585767464 1.0334260871963692 45.43293398653662 -0.015485378345909113 -0.8178510386496776 21.948524140490477 -11.39113431213532 2.444054546447166 26.37299975650067 -3.4233107424796274 1.5277998107846875 39.984772280152875 0.2653503666723209 -0.18810737620546328 17.638329422599497 -8.609868741702881 0.8887376448323262 15.633138599790241 -3.4802870751852075 0.7665811908260179 33.21603346535822 -1.5084746098546244 0.18337140220205927 15.73889006890964 -4.447952847574264 0.3173683103622656 7.714590124783101 -2.520541725642992 0.33118784537219215 20.40882985991239 -0.033428106903880254 -0.21479905359593413 13.671299822835005 -0.3542525152924639 18.62895236351822 -11.166316651345243 -31.39698513159784 0.776414993397391 3.238622816277311 -7.583809825262329 1.6182342284774889 1.1329684754717668 -13.84186504790608 3.497680338540575 -5.732816357464152 2.784228677937822 3.350451221454039 -83.53894429881774 -14.478733588760765 0.023467683540790818 0.18503592588716677 4.107820452246518 -27.69367481865181 -11.384833629146474 15.84204477934383 5.385651576557561 -35.62559855912605 3.4915894563573113 1.3320009975031968 -46.06500466135846 2.609288248861066 0.5293004450680657 -20.99589065637675 11.348354847647183 2.440540637332413 -26.553778813438417 3.4372562766502575 1.5636905748339016 -40.61987511528798 1.6255420122352593 0.52080434685334 -19.810927582098856 8.564245652066028 0.881597857737493 -15.807293236429864 3.620290947630919 0.8172372196341006 -33.85127184837945 1.3726814549908242 0.16406294220844608 -12.738716969996059 4.565016354543787 0.3332207412747781 -7.876724390042551 2.6128365255418537 0.3571184061828357 -21.04357749930178 0.7187962355052602 0.02859349091459592 -10.63907154048626 0.36211770560792345 18.625559312314298 11.179694678204225 31.852960072338277 0.9234988506062664 -3.1229939423755795 8.671570261078124 1.8058052397704114 -0.299555205150897 -4.8354751391048225 -1.5573882416105644 10.731615237270644 -5.059470677610449 12.277917253506743 2.249118872330084 0.7733377498128752 -9.7903637422573 -7.906099926992915 -0.0000012703971457210978 -0.5437529586246977 -5.764906231042508e-7 11.680798728342884 -19.159440628934522 11.863929403310795 10.212533431012009 21.64428279263269 6.031623232308501 3.2340411653882426 -1.451425072862317 -8.874142516101594 -0.000017885395760265033 -0.4312096277600632 -0.0000024647629259645357
0.058926235884428024 -0.2978036874096688 0.025972751900553703 1.6634771913336912 -0.8972679329880011 -5.37987909636231 -0.5995991660393205 1.342220142311567 2.8001636993956205 1.6616032535595617 1.3502607473355477 11.420493435510938 -0.3317021355195793 1.1160654309380649 -2.1257263765356726 -0.33365461338970537 3.824456529450971 -7.866352439740151 0 0 0 0 0 0 0 0 0 3.3649368833881366 4.4976977197827805 5.686200631764019 1.2759026391503967 -1.747146166610305 67.34309636708858 17.729025680689556 0.035144870645266536 -0.2253615420842555 -9.394255019544348 -11.177446071700238 12.2881126151076 -15.82239987347518 5.331773932129034 35.16907725667584 -3.4686536943320982 1.0190915963091431 45.16856318299729 0.011109379042575241 -0.8149103970720862 21.6869094155794 -11.480147582417494 2.460970490320512 26.101256339620768 -3.4074709294575043 1.5111924490814155 39.721721719272374 0.2888498231846791 -0.18943721591853152 17.376726316151576 -8.589902135070467 0.8745750115818737 15.372190441556288 -3.4608227634713287 0.7547123710524579 32.95429893271628 -1.4865384413893838 0.17722013272594897 15.477342275732664 -4.236777983917351 0.2901633910248509 7.47097208337731 -2.498924925187091 0.32324826130798207 20.147353653003577 -0.009423543622556709 -0.21484950663697464 13.409714002033802 -0.1807181538325559 18.599930718254036 -11.0627473143154 -30.901263416209236 0.6114565442091092 3.342386545388572 -7.416753249416607 1.5779813927613058 1.1707370029908237 -13.821934686747314 3.4988310216560854 -5.744763174800171 2.7879493841136913 3.317845269342815 -83.57121895221883 -14.431160765259984 0.023349814409497724 0.18445824658107032 4.224297774002083 -27.934994287673046 -11.470131796125079 15.842055615600941 5.385658008252656 -35.62556147660443 3.5348679129218397 1.3726213083924739 -46.74208275880696 2.6620482642707413 0.5571332763744512 -21.672537982948455 11.348362388220044 2.4405312372960357 -26.553768113246704 3.477228701731886 1.6071661118779073 -41.29652312206546 1.6778308466361562 0.5469442956295357 -20.487674274074124 8.564245652066028 0.8815983380420248 -15.807295809989183 3.669757345066578 0.8492577048016575 -34.527818606113605 1.429558311444874 0.1793008558734951 -13.415773774005219 4.564992678042793 0.33321665910049625 -7.876696012841537 2.6683038740085285 0.3789204997214633 -21.720386176954342 0.7780091282077439 0.037533402952829774 -11.31617325379006 0.36210117356442084 18.62557192576213 11.179680536382145 31.85290613436953 0.9234696050601905 -3.122990105601579 8.671559283444042 1.8058035313746836 -0.2995559792571219 -4.856178323322423 -1.5393248671563442 10.722842402933535 -4.9076765654338415 12.232546874311979 2.275865820136978 0.553353021123246 -9.777388919140416 -7.893215767458265 0.00000341356011651758 -0.5360245232765014 0.000002353629977390751 11.677468584100254 -19.14586915276255 11.813598303355494 10.138281522988505 21.596029014832013 6.0179990895572955 3.2284498813609104 -1.4231829595140464 -8.852732147172128 -0.000005810444637057403 -0.4149506394947402 8.015404949594428e-7
